<svg xmlns="http://www.w3.org/2000/svg" viewBox="0 0 240 240">
  <defs>
    <linearGradient id="blue" x1="0" x2="1" y1="0" y2="1">
      <stop offset="0%" stop-color="#93c5fd"/>
      <stop offset="100%" stop-color="#6366f1"/>
    </linearGradient>
  </defs>
  <rect width="240" height="240" rx="30" fill="#eff6ff"/>
  <path d="M120 44c-26 0-48 22-48 48 0 26 22 48 48 48s48-22 48-48c0-26-22-48-48-48z" fill="url(#blue)" opacity="0.9"/>
  <path d="M88 104c6 16 18 26 32 26s26-10 32-26" fill="none" stroke="#1d4ed8" stroke-width="10" stroke-linecap="round"/>
  <path d="M120 92l-18 26h36l-18-26z" fill="#fff"/>
  <circle cx="100" cy="74" r="6" fill="#1d4ed8"/>
  <circle cx="140" cy="74" r="6" fill="#1d4ed8"/>
  <path d="M144 156c0 10-20 18-24 18s-24-8-24-18" fill="none" stroke="#1d4ed8" stroke-width="10" stroke-linecap="round"/>
  <path d="M60 160c24-28 116-28 140 0" fill="none" stroke="#1d4ed8" stroke-width="12" stroke-linecap="round" opacity="0.5"/>
</svg>
